<svg width="646" height="420" viewBox="0 0 646 420" fill="none" xmlns="http://www.w3.org/2000/svg">
<path fill-rule="evenodd" clip-rule="evenodd" d="M69.0754 225.306L117 420H0L69.0754 225.306Z" fill="#018875"/>
<path fill-rule="evenodd" clip-rule="evenodd" d="M117 420L140 347L69.1144 225.197L69.0754 225.306L117 420Z" fill="#00D0C3"/>
<path fill-rule="evenodd" clip-rule="evenodd" d="M140 347H269L171 245L69.172 225.034L69.1143 225.196L140 347Z" fill="#AF2587"/>
<path fill-rule="evenodd" clip-rule="evenodd" d="M171 245L269 347L238 245H171Z" fill="#17191A"/>
<path fill-rule="evenodd" clip-rule="evenodd" d="M269 347L292 420H411L269 347Z" fill="#AF2587"/>
<path fill-rule="evenodd" clip-rule="evenodd" d="M411 420L269 347L319.921 163.286L411 420Z" fill="#17191A"/>
<path fill-rule="evenodd" clip-rule="evenodd" d="M319.921 163.287L269 347L238 245L319.866 163.134L319.921 163.287Z" fill="#EFCE00"/>
<path fill-rule="evenodd" clip-rule="evenodd" d="M261.997 0.026123L319.866 163.134L238 245L261.997 0.026123Z" fill="#00D0C3"/>
<path fill-rule="evenodd" clip-rule="evenodd" d="M261.994 0.0153809L261.997 0.0261255L238 245L204.5 139L261.994 0.0153809Z" fill="#003F25"/>
<path fill-rule="evenodd" clip-rule="evenodd" d="M204.5 139L149 0L171 245L204.5 139Z" fill="#018875"/>
<path fill-rule="evenodd" clip-rule="evenodd" d="M261.988 0H149.012L149.006 0.0157025L204.5 139L261.994 0.0154085L261.988 0Z" fill="#EFCE00"/>
<path fill-rule="evenodd" clip-rule="evenodd" d="M69.1721 225.034L149.002 0.0266113L171 245L69.1721 225.034Z" fill="#EFCE00"/>
<path fill-rule="evenodd" clip-rule="evenodd" d="M412 420L535 110V420H412Z" fill="#0D626C"/>
<path fill-rule="evenodd" clip-rule="evenodd" d="M412 420L485 236L412 110H412V420Z" fill="#0DB899"/>
<path fill-rule="evenodd" clip-rule="evenodd" d="M535 110H646V0L412 110L485 236L535 110Z" fill="#028E85"/>
<path fill-rule="evenodd" clip-rule="evenodd" d="M646 0H301L412 110L646 0Z" fill="#2ADEB3"/>
<path fill-rule="evenodd" clip-rule="evenodd" d="M301 0V110H412L301 0Z" fill="#03B488"/>
</svg>
